<?xml version="1.0" encoding="utf-8"?>
<!-- Generator: Adobe Illustrator 19.2.1, SVG Export Plug-In . SVG Version: 6.00 Build 0)  -->
<svg version="1.1" id="Layer_1" xmlns="http://www.w3.org/2000/svg" xmlns:xlink="http://www.w3.org/1999/xlink" x="0px" y="0px"
	 viewBox="0 0 269.5 112.3" style="enable-background:new 0 0 269.5 112.3;" xml:space="preserve">
<style type="text/css">
	.st0{fill:#231F20;}
	.st1{fill:#241F20;}
	.st2{fill:#232021;}
	.st3{fill:#241F21;}
	.st4{fill:#232122;}
	.st5{fill:#252223;}
	.st6{fill:#211F20;}
	.st7{fill:#252123;}
	.st8{fill:#1F1E1E;}
	.st9{fill:#242122;}
	.st10{fill:#211D1E;}
	.st11{fill:#201D1E;}
	.st12{fill:#F9F8F9;}
	.st13{fill:#262324;}
	.st14{fill:#FBFBFB;}
	.st15{fill:#1D1B1C;}
	.st16{fill:#FEFEFE;}
	.st17{fill:#1F1B1C;}
	.st18{fill:#FEFDFE;}
</style>
<g>
	<path class="st0" d="M184.1,98c0-30.9,0-61.8-0.1-92.8c0-3.6,1.1-4.4,4.4-4.3c3.1,0.1,4.8,0.4,4.6,4.2c-0.3,6.6-0.1,13.3-0.1,19.9
		c0,1.3-0.5,3.4,2.1,1.8c1.5,1.1,1.8,2.8,1.9,4.5c0,0.6-0.1,1.1-0.2,1.7c-1.7,3.3-2.3,6.8-2.3,10.6c0.1,12.3,0,24.5,0,36.8
		c0,1.3,0,2.7,0.1,4c0.3,2.6,0.8,5.1,3.8,5.7c3.1,0.5,3.7-2.1,4.6-4.2c0.5-1.6,1-3.1,1-4.8c-0.6-14.5-0.4-29-0.1-43.4
		c-0.2-0.4-0.4-0.9-0.5-1.4c-0.3-1.1,0.3-2.6-1.1-3.4c-0.4-0.2-0.7-0.4-1-0.7c-0.5-0.5-0.8-1-1.1-1.6c-0.4-0.8-0.7-1.6-0.5-2.5
		c0.5-1.2,0.4-2.6,1.4-3.6c1,0,2,0,3,0c0.3,0.1,0.6,0.2,0.9,0.5c2,2,2.9,2.5,4.9,2.4c2.6,2.8,3.3,6,3.3,9.8
		c-0.2,15.8-0.1,31.7-0.1,47.5c0,11.3-3.7,14.9-15,14.6c-0.8,0.1-1.5-0.2-2-0.8c-0.8-0.7-1.5-1.4-2.3-2.1
		C191.1,99,187.9,99.9,184.1,98z"/>
	<path class="st0" d="M16.8,105.9c5.3-3.8,2.8-9.3,3.5-14.3c-1.8-0.3-2.7,1.2-3.9,1.7c-7.8,3.7-16-0.6-16.2-9.2
		c-0.3-16.6-0.3-33.3,0-49.9c0.1-8.6,9.5-13.2,16.7-8.5c1.2,0.8,2.3,1.8,3.7,2.8c0.3-5.2,4-3.2,6.5-3.4c3.3-0.3,2,2.5,2,3.9
		c0.1,23.1,0.1,46.3,0,69.4c0,4.3-0.8,8.3-4.9,10.8c-0.2-0.1-0.4-0.1-0.6-0.2C22.1,106.3,18.7,107.8,16.8,105.9z"/>
	<path class="st1" d="M147.1,61.1c0-8-0.1-16,0-24c0.1-8.6,4.9-12.8,14-13.2c9.6-0.5,15.2,6,15,13c-0.2,7.7-0.2,15.3,0,23
		c0.1,2.7-0.5,3.8-3.5,3.7c-4.5-0.3-9,0-13.5-0.1c-2.1,0-3.4,0.2-3.3,2.9c0.2,6.5,0.1,13,0.2,19.5c0.1,3.6,1.5,6.3,5.6,6.2
		c4,0,5.4-2.7,5.5-6.3c0.1-2.2,0.1-4.3,0.1-6.5c0-4.7,3.2-6.8,7.6-5.1c1.3,0.5,1.2,1.4,1.2,2.4c0,3.8,0.3,7.7-0.1,11.5
		c-0.8,7.9-6.4,11.5-16.6,11c-7.4-0.4-12.1-4.9-12.3-12.4C147,78.1,147.1,69.6,147.1,61.1z"/>
	<path class="st2" d="M37.3,38c-1-5.9,1.9-11.3,7.7-13c10.2-3,21.8-0.5,21.3,14.3c-0.5,15.3-0.1,30.6-0.1,45.8c0,7.5-3,12-9.3,13.4
		C50.6,99.9,41,99.5,38.4,92c-0.6-16.4-0.1-32.8-0.3-49.3C38.1,41.1,38.8,39.3,37.3,38z"/>
	<path class="st0" d="M256.1,74.1c-1.9,0.7-3.2,0.5-3.2-2c0.2-10.8-1.2-21.7,3.9-31.8c4.5-8.9,3.2-18.5,3.2-27.9
		c0-2.6-1.3-4.5-4.2-4.6c-2.9,0-4.4,1.7-4.6,4.3c-0.3,3.6-0.4,7.3-0.2,11c0.2,4.2-2.7,2.8-4.7,2.9c-1.9,0.1-4.5,1-4.2-2.8
		c0.3-3.8-0.1-7.7,0.1-11.5c0.4-8,5.6-11.9,15.3-11.7c8.3,0.2,11.5,3.7,11.9,11.9c0.7,12.8-0.9,25.1-6.2,36.9
		c-3.3,7.4-1.6,15.4-2.2,23.2C260.2,74.6,257.3,72.4,256.1,74.1z"/>
	<path class="st2" d="M230.1,12.3c0,3.4,0.1,6.7,0,9.9c-0.1,2.1,0.5,3.2,2.7,2.8c2.3-0.3,3.7,0.1,3.5,3.1c-0.1,2.6-0.4,4.3-3.5,3.8
		c-2.7-0.5-2.8,1.2-2.8,3.2c0,16.8,0,33.6,0,50.4c0,2.9,0.3,5.4,4,5.6c3.7,0.3,1.7,3.2,2.1,5c0.4,2.4-1.5,2-3,2
		c-8.9,0.2-12-2.8-12-11.7c0-16.8,0-33.6,0-50.4c0-2,0.7-4.3-2.9-4.4c-2.4-0.1-1.2-2.6-1.4-4.1c-0.2-1.4-0.2-2.8,1.9-2.6
		c2.6,0.3,2.4-1.4,2.4-3.2C221.6,14.4,221.6,14.4,230.1,12.3z"/>
	<path class="st2" d="M83.1,12.2c0,2.9,0.1,5.6,0,8.4c-0.1,2.6-0.4,4.9,3.6,4.5c2.4-0.3,2.5,2,2.6,3.9c0.1,2.2-0.8,3.1-2.9,2.8
		c-3.2-0.5-3.3,1.3-3.3,3.7c0.1,16.5,0.1,32.9,0,49.4c0,3.2,0.3,5.9,4.5,6.3c3.1,0.3,1.2,3.2,1.6,4.9c0.4,1.9-1,2-2.4,2.1
		c-8.8,0.7-12.5-2.8-12.5-11.7c0-16.8,0-33.6,0-50.4c0-2,0.8-4.3-2.8-4.4c-2.5,0-1.2-2.6-1.4-4c-0.2-1.3-0.3-2.9,1.8-2.6
		c2.6,0.3,2.4-1.4,2.5-3.1C74.6,14.5,74.6,14.5,83.1,12.2z"/>
	<path class="st2" d="M118.1,98.1c-5.4-1.6-6.8-6.1-6.9-10.8c-0.2-17.8-0.2-35.5,0-53.3c0.1-7.1,4.7-10.4,12.9-9.7
		c0.6,4.4-3.7,2.5-5.3,4.4c2,1,4.1,2.2,3.7,5.2c-1.2,4.6-0.9,9.2-0.9,13.9c0,11.3,0,22.6,0,33.9c0,2.8,0,5.7,1.4,8.2
		c2,2.7,3.8,5.4,2.1,8.9c-0.3,0-0.7,0.1-1,0.1C122.2,97.5,120.3,97,118.1,98.1z"/>
	<path class="st3" d="M122.4,32.2c-2.3-1.1-4.7-2.1-6-4.9c2.8-0.8,6.1,0.1,7.7-3c2.5,0.5,4.8,1.3,6,3.7c0.9,0.7,1.9,1,3,0.5
		c3.1-0.5,4.5,2.4,6.8,3.5c0,21.7,0.1,43.3,0.1,65c-1.5,2.6-4,1.2-6,1.6c-2.1-0.2-0.6-2.9-2.4-3.3c-0.4-0.1-0.9-0.2-1.3-0.3
		c-1.8-0.2-3.2-0.7-3.5-2.7c0.2-0.4,0.5-0.8,0.9-1c0.4-0.2,0.9-0.5,1.4-0.5c4.2,0.2,3.6-1.5,1.6-3.8c-0.2-0.2-0.2-0.6-0.2-1
		c0.1-0.8,0.5-1.5,1.1-2c2.7-1.3,3-3.6,3-6.3c-0.1-10.5-0.1-21,0-31.5c-0.1,10.4,0,20.8-0.1,31.1c0,1.3,0.8,3.7-1.2,3.7
		c-2.5,0.1-1.6-2.5-1.6-3.9c-0.1-5.2-0.2-10.3,0-15.5c0.3-7.5-0.7-14.9-1.4-22.3C129.8,34.7,126,33.5,122.4,32.2z"/>
	<path class="st4" d="M140,32c-3.1,0.8-4.2-2.9-6.8-3c-1.8-1.3-2.7-3,0.4-3.3c3.4-0.4,1-2.1,1.1-3.2c0-3.9,0-7.8,0-10.7
		c0.4,3.4-0.7,7.9,0.6,12.4c-3,1.5-3.5,1.5-3.5-1.2c0-5.8-0.3-11.6,0.1-17.4c0.2-2.4,1.2-3.7,3.3-4.5c4-1.3,5,0.7,5,4.3
		C140,14.3,140,23.2,140,32z"/>
	<path class="st5" d="M24.3,109.1c-9.6,6.5-22.7,2.4-23.9-7.6c-0.2-2-0.7-4.3,2.7-3.5c-0.6,5.5,4.3,2.4,6.2,3.9c1.1,2.6,3,4,5.8,4.2
		c1,0,1.1,3.5,3.1,0.6c0.4-0.6,3.6,1.5,5.7,2.1L24.3,109.1z"/>
	<path class="st6" d="M37.3,38c0.7,0.2,2-0.4,2,0.8c-0.2,17.4-0.4,34.8,0.1,52.2c0,0.3-0.6,0.7-1,1c-0.8-1.6-1.3-3.4-1.3-5.2
		C37.2,70.5,37.2,54.2,37.3,38z"/>
	<path class="st0" d="M252.3,92.9c-1-4.1,0.5-5,4.5-5.2c5-0.2,4.4,2.4,4.6,5.7c0.2,3.7-0.7,4.9-4.7,5
		C251.8,98.5,251.5,96.3,252.3,92.9z"/>
	<path class="st7" d="M135.1,1.2c-2.3,2.2-3,4.9-3,8c0,4.3,0,8.6,0,12.8c0,2,0.2,3.9,3,2l0,0c1.1,1.9,1.1,2.4-0.3,2.2
		c-3.2-0.4-2.5,1.1-1.7,2.8c-2.1,3-2.5,0.8-3-1c2.1-0.8,1.1-2.6,1.1-3.8c0.1-6.5,0.2-13,0-19.4C131.1,1.6,132,0.4,135.1,1.2z"/>
	<path class="st8" d="M9.3,101.9c-1.5,1.6-4.1-0.7-5.3,1.7c-2.7-1.5-1.7-3.5-0.9-5.6C6.1,97.9,10,96.2,9.3,101.9z"/>
	<path class="st9" d="M127.1,92.1c0.9,2,2.7,2,4.4,2.1c0.1,1-0.7,1.4-1.4,1.8c-1,0.3-1.6,1-2.1,1.9c-0.4,0.8-1.1,1.2-2,1.1
		c-0.3-0.1-0.7-0.1-1-0.2c-1-2.1,0.5-5-2-6.7C124.5,90.8,125.8,90.8,127.1,92.1z"/>
	<path class="st10" d="M23.9,108.9c-0.8,0.2-1.9,0.9-2.3,0.6c-2.6-1.8-4.8-2.5-6.3,2.2c-0.4-2.4,1.3-4-0.2-5.4
		c0.6-0.1,1.1-0.2,1.7-0.3C19.3,106.6,23.5,103.4,23.9,108.9z"/>
	<path class="st11" d="M200.1,28c0.3,0.7,0.7,1.3,1,2c-1.5,1.3-3,2.3-5,1c-0.7-1.3-1.1-2.7-1.1-4.2c0.3-0.3,0.7-0.6,1-0.8
		C198.1,25.3,200,24.9,200.1,28z"/>
	<path class="st12" d="M184.1,98c3.3-0.1,7.3,2,8.9-3c0.3,0.4,0.5,0.7,0.8,1.1C191.9,100.3,187,101.3,184.1,98z"/>
	<path class="st13" d="M209.9,27c-2.3,0-3,2.3-4.9,3.7c-0.1-2.4,1.8-5-0.8-6.5C206.6,24.1,208.7,24.7,209.9,27z"/>
	<path class="st12" d="M130.1,96c0.5-0.6,1-1.2,1.4-1.8l0.1,0c1.9,0.7,0.9,2.6,1.5,3.8c2.4,0.1,4.9,0.9,7-1
		c-0.2,4.6-3.8,1.5-5.7,2.4C131.5,100.8,131.5,97.3,130.1,96z"/>
	<path class="st9" d="M118.1,98.1c2.6-4.3,4.3-1.9,6,0.7C122.1,98.9,119.9,99.7,118.1,98.1z"/>
	<path class="st12" d="M126.1,98.9c0.7-0.4,1.3-0.7,2-1.1c0.6,1.5,1.2,3-0.1,4.4c-0.2,0.2-1.2-0.1-1.8-0.3
		C123.6,101.1,125.4,100,126.1,98.9z"/>
	<path class="st14" d="M153.4,100.2c-2.2,0.7-4,2.6-5.3,0.8c-1.4-2-0.4-3,2-1.7C150.9,99.7,151.8,99.8,153.4,100.2z"/>
	<path class="st13" d="M200.1,28c-0.8-1.8-2.3-2.1-4-2c1.4-1.3,3.1-1.9,5-1.8C201.2,25.6,202.5,27.3,200.1,28z"/>
	<path class="st12" d="M196.1,98.2c0.9-0.2,1.6,0,2,0.8c0.1,0.9,1.9,1,1.1,2.3c-0.4,0.6-1.1,0.7-1.7,0.4
		C196.2,100.8,195,100,196.1,98.2z"/>
	<path class="st15" d="M256.1,74.1c0.6-3.1,3.9,0,4.8-2.1C261,76.6,257.9,73.9,256.1,74.1z"/>
	<path class="st16" d="M204.3,86c-0.6,3.2-1.3,6.5-5.7,6c-4.2-0.4-5.5-3.4-5.5-7c-0.1-15.3-0.1-30.5-0.1-45.8c0-2.9,1.4-5,3.2-7
		c1.9-1.2,3.8-1.7,5.7,0l0,0c2,0.2,1.8,1.9,2,3.2c-0.2,0.3-0.1,0.5,0.2,0.6c1.5,2,0.4,4.2,0.4,6.3c0.2,13.1-0.2,26.2,0.3,39.3
		C204.9,83.1,204.7,84.5,204.3,86z"/>
	<path class="st13" d="M204.3,86c-0.1-16.7-0.1-33.3-0.2-50c1.4,0.2,1.9,0.8,1.8,2.3c-1.3,14.3-1.1,28.7-0.2,43
		C205.8,83.1,205.3,84.6,204.3,86z"/>
	<path class="st13" d="M202,32.3c-1.9-0.6-3.8-0.5-5.7,0c0-0.4-0.1-0.8-0.1-1.2c1.7-0.3,3.3-0.7,5-1C201.4,30.8,201.7,31.5,202,32.3
		z"/>
	<path class="st13" d="M204,35.4c-0.7-1.1-1.4-2.1-2-3.2c0.8-0.3,1.6-1.2,2.5-0.2C205.6,33.3,204.2,34.3,204,35.4z"/>
	<path class="st16" d="M9,59.2c0-7-0.1-14,0-20.9c0.1-3.3,0.7-6.5,5.1-6.4c4.4,0.1,6.1,2.6,6.1,6.8c0,13.5,0,26.9-0.1,40.4
		c0,1,0,2-0.3,3c-0.8,3-2.6,5.2-5.9,4.9c-3.3-0.3-5-2.5-5-5.7C9,73.8,9,66.5,9,59.2z"/>
	<path class="st17" d="M11.4,28.3c-2.2-0.2-3.1,3.9-5.6,1.7c-0.7-0.6-0.9-1.7-0.3-2.2C7.5,26.4,9.4,28.2,11.4,28.3z"/>
	<path class="st18" d="M167.3,45.6c0,1.7-0.2,3.4,0,5c0.8,4.8-1.4,5.4-5.7,5.6c-5,0.2-6.3-1.4-5.8-6.1c0.5-4.4,0.1-9,0.3-13.4
		c0.1-3.4,1.7-5.8,5.5-5.8c3.7,0,5.3,2.3,5.5,5.7c0.1,3,0,6,0,9C167.2,45.6,167.2,45.6,167.3,45.6z"/>
	<path class="st18" d="M57.2,62c0,7.7,0,15.3,0,23c0,3.8-1,7.2-5.7,7.1c-4.4-0.1-5.4-3.2-5.4-6.9c0-15.8,0-31.6,0-47.4
		c0-3.7,1.1-6.8,5.5-6.9c4.7-0.1,5.7,3.3,5.7,7.1C57.3,46,57.2,54,57.2,62z"/>
	<path class="st16" d="M127.1,92.1c-1.3,0-2.7,0-4,0c-2.3-1.7-3.1-4.1-3.1-6.9c0-15.4,0-30.8,0-46.1c0-2.6,0.9-4.8,2.4-6.9
		c5.2-1.4,7.7,1.3,8.8,5.9c1.2,15.2,0.8,30.4,0.7,45.7c0,0.5-0.4,0.9-0.7,1.3c0,0.7-0.1,1.3-0.1,2c0.5,2.8-1.3,3.9-3.5,4.9l-0.4-0.1
		L127.1,92.1z"/>
	<path class="st4" d="M131.3,85c0-15.7,0-31.3-0.1-47c0.6,5,1.6,10.1,1.8,15.1c0.3,9.1,0.1,18.2,0.8,27.3c0-13.1,0-26.2,0-39.3
		c0.4,0,0.8,0,1.2,0c0,8.9,0,17.7,0,26.6c0,4.3-0.4,8.7,0.2,13C135.8,84.3,134.5,85.2,131.3,85z"/>
	<path class="st9" d="M127.8,91.9c1.6-1.3,2.6-3,3.5-4.9c3.1,0.7,1,4.3,3.2,5.7C132.2,91.6,130,91.5,127.8,91.9z"/>
	<path class="st9" d="M133.1,98c-2.3-0.6-0.6-2.7-1.5-3.8C134,94.7,136.1,95.4,133.1,98z"/>
	<path class="st7" d="M135.1,24c-2.2-4.9-0.4-9.9,0-14.9C135.1,14.1,135.1,19.1,135.1,24C135.1,24,135.1,24,135.1,24z"/>
</g>
</svg>
